# xmcd
# 
# Track frame offsets:
#     150
#     21842
#     44157
#     64320
#     78585
#     95722
#     116372
#     137575
# 
# Disc length: 1982
# 
# Revision: 1
# Processed by: cddbd v1.5.2PL0 Copyright (c) Steve Scherf et al.
# Submitted via: fre:ac v1.0.17
# 
DISCID=6f07bc08
DTITLE=SMAP - Mr.S[disk2]
DYEAR=0
DGENRE=JPop
TTITLE0=よわいとこ
TTITLE1=やりたい放題
TTITLE2=Mistake! (アルバム・ヴァージョン)
TTITLE3=SKINAIRO
TTITLE4=The Future
TTITLE5=Dramatic Starlight
TTITLE6=好きよ
TTITLE7=Theme of Mr.S (monochrome ver.)
EXTD=
EXTT0=
EXTT1=
EXTT2=
EXTT3=
EXTT4=
EXTT5=
EXTT6=
EXTT7=
PLAYORDER=
